<svg xmlns="http://www.w3.org/2000/svg" width="28" height="25" viewBox="0 0 28 25">
  <path id="Icon_awesome-shopping-cart" data-name="Icon awesome-shopping-cart" d="M25.673,14.713l2.3-10.156a1.171,1.171,0,0,0-1.138-1.432H7.739L7.294.937A1.168,1.168,0,0,0,6.151,0H1.167A1.169,1.169,0,0,0,0,1.172v.781A1.169,1.169,0,0,0,1.167,3.125h3.4L7.979,19.894a2.724,2.724,0,1,0,3.259.418H21.429A2.72,2.72,0,1,0,24.52,19.8l.268-1.185a1.171,1.171,0,0,0-1.138-1.432H10.6l-.318-1.563h14.25A1.168,1.168,0,0,0,25.673,14.713Z" fill="#251327"/>
</svg>
