<svg xmlns="http://www.w3.org/2000/svg" width="24" height="24" viewBox="0 0 24 24">
  <g id="Footer_Blog" transform="translate(-1600 -3970)">
    <path id="패스_4" data-name="패스 4" d="M88.057,261.839H103.33a4.38,4.38,0,0,0,4.364-4.4V242.233a4.379,4.379,0,0,0-4.364-4.394H88.057a4.379,4.379,0,0,0-4.363,4.394v15.208A4.379,4.379,0,0,0,88.057,261.839ZM85.336,243.06a3.233,3.233,0,0,1,3.214-3.252h13.927a3.236,3.236,0,0,1,3.217,3.252v7.715a3.235,3.235,0,0,1-3.217,3.251h-4.8l-1.635,2.685a.365.365,0,0,1-.056.082.547.547,0,0,1-.95,0,.494.494,0,0,1-.052-.078l-1.637-2.685h-4.8a3.232,3.232,0,0,1-3.214-3.251Z" transform="translate(1516.306 3732.161)" fill="#fff"/>
    <path id="패스_5" data-name="패스 5" d="M97.3,262.491a1.372,1.372,0,0,0,1.2.617,2.11,2.11,0,0,0,2.014-2.228s-.074-2.176-2.014-2.176a1.9,1.9,0,0,0-1.218.565V257H95.855v5.958H97.3Zm.886-2.48a.918.918,0,1,1-.918.919A.918.918,0,0,1,98.185,260.011Z" transform="translate(1507.887 3718.881)" fill="#fff"/>
    <path id="패스_6" data-name="패스 6" d="M110.574,259.192v3.526h1.379v-3.853s.06-2.242-2.03-2.242V258S110.574,257.975,110.574,259.192Z" transform="translate(1498.3 3719.143)" fill="#fff"/>
    <path id="패스_7" data-name="패스 7" d="M120.629,266.12s2.417,0,2.417-2.179a2.17,2.17,0,0,0-2.417-2.206s-2.364,0-2.364,2.206A2.138,2.138,0,0,0,120.629,266.12Zm0-3.1a.918.918,0,1,1-.919.919A.918.918,0,0,1,120.629,263.023Z" transform="translate(1492.363 3715.701)" fill="#fff"/>
    <path id="패스_8" data-name="패스 8" d="M135.351,266.048a1.647,1.647,0,0,0,1.257-.546v.333s.1,1.046-.911,1.046h-.346v1.266h.557a2.076,2.076,0,0,0,2.09-2.233v-4.04h-1.391v.406a1.564,1.564,0,0,0-1.2-.545,1.969,1.969,0,0,0-2.022,2.19S133.362,266.048,135.351,266.048Zm.4-3.026a.918.918,0,1,1-.919.919A.917.917,0,0,1,135.753,263.022Z" transform="translate(1481.912 3715.579)" fill="#fff"/>
  </g>
</svg>
