<svg xmlns="http://www.w3.org/2000/svg" xmlns:xlink="http://www.w3.org/1999/xlink" width="24" height="24" viewBox="0 0 24 24">
  <defs>
    <clipPath id="clip-path">
      <rect id="사각형_457" data-name="사각형 457" width="20" height="20" transform="translate(0 0)" fill="#251327"/>
    </clipPath>
  </defs>
  <g id="footer_tooltip_hover_w" data-name="footer_tooltip hover_w" transform="translate(0 0)">
    <g id="그룹_1409" data-name="그룹 1409" transform="translate(-1420 -5269)">
      <rect id="사각형_336" data-name="사각형 336" width="24" height="24" rx="6" transform="translate(1420 5269)" fill="#fff"/>
    </g>
    <g id="그룹_1408" data-name="그룹 1408" transform="translate(2 2)">
      <g id="그룹_1407" data-name="그룹 1407" transform="translate(0 0)" clip-path="url(#clip-path)">
        <path id="패스_69" data-name="패스 69" d="M6.752,19.969A10.256,10.256,0,0,1,0,9.946,10.165,10.165,0,0,1,9.748,0,10.124,10.124,0,0,1,20,10.26a10.251,10.251,0,0,1-6.725,9.7.567.567,0,0,1-.745-.55c0-.646,0-1.316,0-1.919l-.071-1.4a1.922,1.922,0,0,0-.138-.754,1.84,1.84,0,0,0-.474-.676,4.452,4.452,0,0,0,2.758-.833,5.053,5.053,0,0,0,1.6-5.392,4.648,4.648,0,0,0-.828-1.546,3.657,3.657,0,0,0,.209-1.316,3.7,3.7,0,0,0-.326-1.437,5.373,5.373,0,0,0-.932.174,5.532,5.532,0,0,0-1.822.9A7.821,7.821,0,0,0,11.3,4.957,7.691,7.691,0,0,0,10.015,4.9a7.7,7.7,0,0,0-1.287.053,7.832,7.832,0,0,0-1.206.254,5.52,5.52,0,0,0-1.82-.9,5.407,5.407,0,0,0-.933-.174,3.706,3.706,0,0,0-.117,2.753,4.671,4.671,0,0,0-.827,1.546,5.051,5.051,0,0,0,1.6,5.392,4.448,4.448,0,0,0,2.756.833,1.855,1.855,0,0,0-.474.676,1.922,1.922,0,0,0-.138.754,3.482,3.482,0,0,1-1.671.217,1.879,1.879,0,0,1-.812-.446,1.993,1.993,0,0,1-.52-.8,1.865,1.865,0,0,0-1.269-.9,1.577,1.577,0,0,0-.694.066,1.123,1.123,0,0,0,.122.261,1.17,1.17,0,0,0,.569.455,3.6,3.6,0,0,1,.388.488,4.8,4.8,0,0,1,.283.5c.255.5.287.605.368.749a1.9,1.9,0,0,0,.948.784,3.981,3.981,0,0,0,1.174.17A4.047,4.047,0,0,0,7.5,17.491c0,.606,0,1.279,0,1.928a.568.568,0,0,1-.749.549" transform="translate(0 0)" fill="#251327"/>
      </g>
    </g>
  </g>
</svg>
