<svg xmlns="http://www.w3.org/2000/svg" xmlns:xlink="http://www.w3.org/1999/xlink" width="24" height="24" viewBox="0 0 24 24">
  <defs>
    <clipPath id="clip-path">
      <rect id="사각형_335" data-name="사각형 335" width="17.6" height="17.6" transform="translate(0 0)" fill="#251327"/>
    </clipPath>
  </defs>
  <g id="Footer_Linkedin" transform="translate(-1420 -5269)">
    <rect id="사각형_336" data-name="사각형 336" width="24" height="24" rx="6" transform="translate(1420 5269)" fill="#fff"/>
    <g id="그룹_1009" data-name="그룹 1009" transform="translate(1423.2 5272.2)" clip-path="url(#clip-path)">
      <rect id="사각형_334" data-name="사각형 334" width="4.122" height="11.507" transform="translate(0.294 5.799)" fill="#251327"/>
      <path id="패스_42" data-name="패스 42" d="M3.057,5.114A2.057,2.057,0,1,0,1,3.057,2.058,2.058,0,0,0,3.057,5.114" transform="translate(-0.706 -0.769)" fill="#251327"/>
      <path id="패스_43" data-name="패스 43" d="M32.893,25.226c0-3.072-.541-5.226-4.122-5.226a3.414,3.414,0,0,0-3.238,1.634V20H22V31.481h3.533V25.84c0-1.479.055-2.9,1.9-2.9,1.813,0,1.932,1.485,1.932,2.991v5.546h3.533Z" transform="translate(-15.523 -14.176)" fill="#251327"/>
    </g>
  </g>
</svg>
