<svg id="그룹_1024" data-name="그룹 1024" xmlns="http://www.w3.org/2000/svg" width="64" height="28" viewBox="0 0 64 28">
  <path id="패스_31" data-name="패스 31" d="M41.073,0V12.182H53.192V7.3H45.767V0Z" transform="translate(7.82 0)" fill="#fff"/>
  <path id="패스_32" data-name="패스 32" d="M2.207,5.854,0,9.59v1.15H22.243V5.854Z" transform="translate(0 1.441)" fill="#fff"/>
  <path id="패스_33" data-name="패스 33" d="M0,12.2v4.886H17.548v1.871l-.68,1.152H0V25H20.037l2.206-3.736V12.2Z" transform="translate(0 3.004)" fill="#fff"/>
  <path id="패스_34" data-name="패스 34" d="M41.073,12.2V24.995h12.9l2.207-3.736v-2.3H51.485l-.68,1.152H45.767V12.2Z" transform="translate(7.82 3.004)" fill="#fff"/>
  <path id="패스_35" data-name="패스 35" d="M25.23,13.335l.68-1.152H38.083V21.96l-.68,1.152H25.23ZM38.084,0V7.3H22.742l-2.206,3.736V28H40.573l2.207-3.736V0Z" transform="translate(3.91)" fill="#fff"/>
</svg>
