<svg xmlns="http://www.w3.org/2000/svg" width="24" height="24" viewBox="0 0 24 24">
  <g id="Footer_Twitter" transform="translate(-1527 -154)">
    <rect id="사각형_337" data-name="사각형 337" width="24" height="24" rx="6" transform="translate(1527 154)" fill="#fff"/>
    <path id="패스_44" data-name="패스 44" d="M18.4,1.77a7.546,7.546,0,0,1-2.168.594A3.787,3.787,0,0,0,17.892.276a7.559,7.559,0,0,1-2.4.916A3.778,3.778,0,0,0,9.062,4.635,10.717,10.717,0,0,1,1.281.691a3.779,3.779,0,0,0,1.168,5.04,3.76,3.76,0,0,1-1.71-.472c0,.016,0,.032,0,.048a3.777,3.777,0,0,0,3.028,3.7,3.784,3.784,0,0,1-1.7.065,3.779,3.779,0,0,0,3.526,2.622A7.574,7.574,0,0,1,.9,13.31a7.657,7.657,0,0,1-.9-.053,10.684,10.684,0,0,0,5.787,1.7A10.668,10.668,0,0,0,16.527,4.213q0-.246-.011-.488A7.668,7.668,0,0,0,18.4,1.77" transform="translate(1529.4 158.8)" fill="#251327"/>
  </g>
</svg>
