<svg xmlns="http://www.w3.org/2000/svg" width="24" height="24" viewBox="0 0 24 24">
  <g id="Footer_Ytube" transform="translate(-200.926 -392.787)">
    <path id="패스_9" data-name="패스 9" d="M220.563,392.787H205.29a4.381,4.381,0,0,0-4.364,4.4v15.208a4.379,4.379,0,0,0,4.364,4.4h15.273a4.379,4.379,0,0,0,4.363-4.4V397.183A4.38,4.38,0,0,0,220.563,392.787Zm-.758,12.082a27.051,27.051,0,0,1-.209,3.044,1.824,1.824,0,0,1-1.661,1.611c-.521.078-3.025.178-5.014.178h.009c-1.989,0-4.495-.1-5.015-.177a1.82,1.82,0,0,1-1.658-1.611,26.72,26.72,0,0,1-.21-3.044v-.164a26.664,26.664,0,0,1,.21-3.042,1.822,1.822,0,0,1,1.658-1.613c.52-.078,3.022-.177,5.01-.177s4.49.1,5.01.177a1.823,1.823,0,0,1,1.661,1.613,27,27,0,0,1,.209,3.042Z" transform="translate(0 0)" fill="#fff"/>
    <path id="패스_10" data-name="패스 10" d="M234.025,429.294l3.8-2.08-3.8-1.984Z" transform="translate(-22.999 -22.475)" fill="#fff"/>
  </g>
</svg>
