<svg xmlns="http://www.w3.org/2000/svg" width="16" height="16" viewBox="0 0 16 16">
  <path id="Icon_metro-earth" data-name="Icon metro-earth" d="M10.571,1.928a8,8,0,1,0,8,8,8,8,0,0,0-8-8Zm0,15a6.976,6.976,0,0,1-2.769-.57l3.643-4.1a.5.5,0,0,0,.126-.332v-1.5a.5.5,0,0,0-.5-.5c-1.765,0-3.628-1.835-3.646-1.854a.5.5,0,0,0-.354-.146h-2a.5.5,0,0,0-.5.5v3a.5.5,0,0,0,.276.447l1.724.862v2.936A7,7,0,0,1,4.245,6.928H6.071a.5.5,0,0,0,.354-.146l2-2a.5.5,0,0,0,.146-.354V3.218a7.02,7.02,0,0,1,5.067.416c-.065.055-.128.112-.188.172a3,3,0,0,0,2.119,5.122q.074,0,.149,0a11.742,11.742,0,0,1-.131,5.818.5.5,0,0,0-.013.082,6.978,6.978,0,0,1-5,2.1Z" transform="translate(-2.571 -1.928)" fill="#251327"/>
</svg>
